<svg width="552" height="125" viewBox="0 0 552 125" fill="none" xmlns="http://www.w3.org/2000/svg">
<path d="M33.7056 2.21717C20.5707 -2.03854 6.47287 5.15947 2.21717 18.2944C-2.03854 31.4293 5.15947 45.5271 18.2944 49.7828L33.7056 2.21717ZM533.706 49.7828C546.841 45.5271 554.039 31.4293 549.783 18.2944C545.527 5.15947 531.429 -2.03854 518.294 2.21717L533.706 49.7828ZM322.234 92.0202L314.528 68.2374L322.234 92.0202ZM18.2944 49.7828L222.06 115.803L237.472 68.2374L33.7056 2.21717L18.2944 49.7828ZM329.939 115.803L533.706 49.7828L518.294 2.21717L314.528 68.2374L329.939 115.803ZM222.06 115.803C257.123 127.163 294.877 127.163 329.939 115.803L314.528 68.2374C289.484 76.3519 262.516 76.3518 237.472 68.2374L222.06 115.803Z" fill="#f2f2ea"/>
</svg>
